<svg width="1920" height="1080" viewBox="0 0 1920 1080" fill="none" xmlns="http://www.w3.org/2000/svg">
<g clip-path="url(#clip0_350_2)" filter="url(#filter0_b_350_2)">
<g filter="url(#filter1_b_350_2)">
<path fill-rule="evenodd" clip-rule="evenodd" d="M1380 0H0V1080H800L1380 0Z" fill="white"/>
</g>
<line x1="141" y1="975.5" x2="843" y2="975.5" stroke="#262626" stroke-opacity="0.75"/>
<path d="M153.912 1016.5L142.488 1012.16V1009.04L153.912 1004.7V1007.7L143.616 1011.44V1009.76L153.912 1013.5V1016.5ZM164.727 1019L166.815 1002.2H169.503L167.439 1019H164.727ZM155.847 1015.16V1012.54H171.351V1015.16H155.847ZM158.511 1019L160.599 1002.2H163.287L161.199 1019H158.511ZM156.663 1008.66V1006.04H172.143L172.167 1008.66H156.663ZM174.129 1016.5V1013.5L184.425 1009.76V1011.44L174.129 1007.7V1004.7L185.553 1009.04V1012.16L174.129 1016.5Z" fill="#262626" fill-opacity="0.75"/>
<path d="M165.016 158.064C160.659 158.064 156.453 157.532 152.4 156.468C148.397 155.353 145.129 153.935 142.596 152.212L147.536 141.116C149.917 142.636 152.653 143.903 155.744 144.916C158.885 145.879 162.001 146.36 165.092 146.36C167.169 146.36 168.841 146.183 170.108 145.828C171.375 145.423 172.287 144.916 172.844 144.308C173.452 143.649 173.756 142.889 173.756 142.028C173.756 140.812 173.199 139.849 172.084 139.14C170.969 138.431 169.525 137.848 167.752 137.392C165.979 136.936 164.003 136.48 161.824 136.024C159.696 135.568 157.543 134.985 155.364 134.276C153.236 133.567 151.285 132.655 149.512 131.54C147.739 130.375 146.295 128.88 145.18 127.056C144.065 125.181 143.508 122.825 143.508 119.988C143.508 116.796 144.369 113.908 146.092 111.324C147.865 108.74 150.5 106.663 153.996 105.092C157.492 103.521 161.849 102.736 167.068 102.736C170.564 102.736 173.984 103.141 177.328 103.952C180.723 104.712 183.737 105.852 186.372 107.372L181.736 118.544C179.203 117.176 176.695 116.163 174.212 115.504C171.729 114.795 169.323 114.44 166.992 114.44C164.915 114.44 163.243 114.668 161.976 115.124C160.709 115.529 159.797 116.087 159.24 116.796C158.683 117.505 158.404 118.316 158.404 119.228C158.404 120.393 158.936 121.331 160 122.04C161.115 122.699 162.559 123.256 164.332 123.712C166.156 124.117 168.132 124.548 170.26 125.004C172.439 125.46 174.592 126.043 176.72 126.752C178.899 127.411 180.875 128.323 182.648 129.488C184.421 130.603 185.84 132.097 186.904 133.972C188.019 135.796 188.576 138.101 188.576 140.888C188.576 143.979 187.689 146.841 185.916 149.476C184.193 152.06 181.584 154.137 178.088 155.708C174.643 157.279 170.285 158.064 165.016 158.064ZM209.359 124.396H234.059V135.644H209.359V124.396ZM210.423 145.372H238.239V157H195.527V103.8H237.251V115.428H210.423V145.372ZM273.114 158.064C268.908 158.064 265.007 157.405 261.41 156.088C257.863 154.72 254.772 152.795 252.138 150.312C249.554 147.829 247.527 144.916 246.058 141.572C244.588 138.177 243.854 134.453 243.854 130.4C243.854 126.347 244.588 122.648 246.058 119.304C247.527 115.909 249.554 112.971 252.138 110.488C254.772 108.005 257.863 106.105 261.41 104.788C265.007 103.42 268.908 102.736 273.114 102.736C278.028 102.736 282.411 103.597 286.262 105.32C290.163 107.043 293.406 109.525 295.99 112.768L286.414 121.432C284.691 119.405 282.791 117.86 280.714 116.796C278.687 115.732 276.407 115.2 273.874 115.2C271.695 115.2 269.694 115.555 267.87 116.264C266.046 116.973 264.475 118.012 263.158 119.38C261.891 120.697 260.878 122.293 260.118 124.168C259.408 126.043 259.054 128.12 259.054 130.4C259.054 132.68 259.408 134.757 260.118 136.632C260.878 138.507 261.891 140.128 263.158 141.496C264.475 142.813 266.046 143.827 267.87 144.536C269.694 145.245 271.695 145.6 273.874 145.6C276.407 145.6 278.687 145.068 280.714 144.004C282.791 142.94 284.691 141.395 286.414 139.368L295.99 148.032C293.406 151.224 290.163 153.707 286.262 155.48C282.411 157.203 278.028 158.064 273.114 158.064ZM313.578 157V115.732H297.238V103.8H344.89V115.732H328.626V157H313.578ZM350.496 157V103.8H365.544V157H350.496ZM403.078 158.064C398.822 158.064 394.895 157.38 391.298 156.012C387.7 154.644 384.559 152.719 381.874 150.236C379.239 147.703 377.187 144.764 375.718 141.42C374.248 138.076 373.514 134.403 373.514 130.4C373.514 126.397 374.248 122.724 375.718 119.38C377.187 116.036 379.239 113.123 381.874 110.64C384.559 108.107 387.7 106.156 391.298 104.788C394.895 103.42 398.822 102.736 403.078 102.736C407.384 102.736 411.311 103.42 414.858 104.788C418.455 106.156 421.571 108.107 424.206 110.64C426.84 113.123 428.892 116.036 430.362 119.38C431.882 122.724 432.642 126.397 432.642 130.4C432.642 134.403 431.882 138.101 430.362 141.496C428.892 144.84 426.84 147.753 424.206 150.236C421.571 152.719 418.455 154.644 414.858 156.012C411.311 157.38 407.384 158.064 403.078 158.064ZM403.078 145.6C405.104 145.6 406.979 145.245 408.702 144.536C410.475 143.827 411.995 142.813 413.262 141.496C414.579 140.128 415.592 138.507 416.302 136.632C417.062 134.757 417.442 132.68 417.442 130.4C417.442 128.069 417.062 125.992 416.302 124.168C415.592 122.293 414.579 120.697 413.262 119.38C411.995 118.012 410.475 116.973 408.702 116.264C406.979 115.555 405.104 115.2 403.078 115.2C401.051 115.2 399.151 115.555 397.378 116.264C395.655 116.973 394.135 118.012 392.818 119.38C391.551 120.697 390.538 122.293 389.778 124.168C389.068 125.992 388.714 128.069 388.714 130.4C388.714 132.68 389.068 134.757 389.778 136.632C390.538 138.507 391.551 140.128 392.818 141.496C394.135 142.813 395.655 143.827 397.378 144.536C399.151 145.245 401.051 145.6 403.078 145.6ZM440.523 157V103.8H452.911L482.247 139.216H476.395V103.8H491.139V157H478.751L449.415 121.584H455.267V157H440.523Z" fill="#262626" fill-opacity="0.85"/>
<path d="M160.228 250.368C157.775 250.368 155.505 249.969 153.42 249.172C151.365 248.344 149.571 247.194 148.038 245.722C146.535 244.219 145.355 242.471 144.496 240.478C143.637 238.485 143.208 236.292 143.208 233.9C143.208 231.508 143.637 229.315 144.496 227.322C145.355 225.329 146.551 223.596 148.084 222.124C149.617 220.621 151.411 219.471 153.466 218.674C155.551 217.846 157.821 217.432 160.274 217.432C162.758 217.432 165.043 217.861 167.128 218.72C169.244 219.548 171.038 220.79 172.51 222.446L169.52 225.344C168.293 224.056 166.913 223.105 165.38 222.492C163.847 221.848 162.206 221.526 160.458 221.526C158.649 221.526 156.962 221.833 155.398 222.446C153.865 223.059 152.531 223.918 151.396 225.022C150.261 226.126 149.372 227.445 148.728 228.978C148.115 230.481 147.808 232.121 147.808 233.9C147.808 235.679 148.115 237.335 148.728 238.868C149.372 240.371 150.261 241.674 151.396 242.778C152.531 243.882 153.865 244.741 155.398 245.354C156.962 245.967 158.649 246.274 160.458 246.274C162.206 246.274 163.847 245.967 165.38 245.354C166.913 244.71 168.293 243.729 169.52 242.41L172.51 245.308C171.038 246.964 169.244 248.221 167.128 249.08C165.043 249.939 162.743 250.368 160.228 250.368ZM187.837 250.276C185.384 250.276 183.206 249.739 181.305 248.666C179.404 247.593 177.901 246.121 176.797 244.25C175.693 242.349 175.141 240.202 175.141 237.81C175.141 235.387 175.693 233.241 176.797 231.37C177.901 229.499 179.404 228.043 181.305 227C183.206 225.927 185.384 225.39 187.837 225.39C190.26 225.39 192.422 225.927 194.323 227C196.255 228.043 197.758 229.499 198.831 231.37C199.935 233.21 200.487 235.357 200.487 237.81C200.487 240.233 199.935 242.379 198.831 244.25C197.758 246.121 196.255 247.593 194.323 248.666C192.422 249.739 190.26 250.276 187.837 250.276ZM187.837 246.412C189.401 246.412 190.796 246.059 192.023 245.354C193.28 244.649 194.262 243.652 194.967 242.364C195.672 241.045 196.025 239.527 196.025 237.81C196.025 236.062 195.672 234.559 194.967 233.302C194.262 232.014 193.28 231.017 192.023 230.312C190.796 229.607 189.401 229.254 187.837 229.254C186.273 229.254 184.878 229.607 183.651 230.312C182.424 231.017 181.443 232.014 180.707 233.302C179.971 234.559 179.603 236.062 179.603 237.81C179.603 239.527 179.971 241.045 180.707 242.364C181.443 243.652 182.424 244.649 183.651 245.354C184.878 246.059 186.273 246.412 187.837 246.412ZM219.612 225.39C221.606 225.39 223.354 225.773 224.856 226.54C226.39 227.307 227.586 228.472 228.444 230.036C229.303 231.6 229.732 233.578 229.732 235.97V250H225.316V236.476C225.316 234.115 224.734 232.336 223.568 231.14C222.434 229.944 220.824 229.346 218.738 229.346C217.174 229.346 215.81 229.653 214.644 230.266C213.479 230.879 212.574 231.784 211.93 232.98C211.317 234.176 211.01 235.663 211.01 237.442V250H206.594V225.62H210.826V232.198L210.136 230.45C210.934 228.855 212.16 227.613 213.816 226.724C215.472 225.835 217.404 225.39 219.612 225.39ZM246.277 250.276C243.823 250.276 241.922 249.617 240.573 248.298C239.223 246.979 238.549 245.093 238.549 242.64V220.284H242.965V242.456C242.965 243.775 243.287 244.787 243.931 245.492C244.605 246.197 245.556 246.55 246.783 246.55C248.163 246.55 249.313 246.167 250.233 245.4L251.613 248.574C250.938 249.157 250.125 249.586 249.175 249.862C248.255 250.138 247.289 250.276 246.277 250.276ZM234.409 229.254V225.62H249.957V229.254H234.409ZM266.999 250.276C264.392 250.276 262.092 249.739 260.099 248.666C258.136 247.593 256.603 246.121 255.499 244.25C254.426 242.379 253.889 240.233 253.889 237.81C253.889 235.387 254.41 233.241 255.453 231.37C256.526 229.499 257.983 228.043 259.823 227C261.694 225.927 263.794 225.39 266.125 225.39C268.486 225.39 270.572 225.911 272.381 226.954C274.19 227.997 275.601 229.469 276.613 231.37C277.656 233.241 278.177 235.433 278.177 237.948C278.177 238.132 278.162 238.347 278.131 238.592C278.131 238.837 278.116 239.067 278.085 239.282H257.339V236.108H275.785L273.991 237.212C274.022 235.648 273.7 234.253 273.025 233.026C272.35 231.799 271.415 230.849 270.219 230.174C269.054 229.469 267.689 229.116 266.125 229.116C264.592 229.116 263.227 229.469 262.031 230.174C260.835 230.849 259.9 231.815 259.225 233.072C258.55 234.299 258.213 235.709 258.213 237.304V238.04C258.213 239.665 258.581 241.122 259.317 242.41C260.084 243.667 261.142 244.649 262.491 245.354C263.84 246.059 265.389 246.412 267.137 246.412C268.578 246.412 269.882 246.167 271.047 245.676C272.243 245.185 273.286 244.449 274.175 243.468L276.613 246.32C275.509 247.608 274.129 248.589 272.473 249.264C270.848 249.939 269.023 250.276 266.999 250.276ZM297.327 225.39C299.32 225.39 301.068 225.773 302.571 226.54C304.104 227.307 305.3 228.472 306.159 230.036C307.018 231.6 307.447 233.578 307.447 235.97V250H303.031V236.476C303.031 234.115 302.448 232.336 301.283 231.14C300.148 229.944 298.538 229.346 296.453 229.346C294.889 229.346 293.524 229.653 292.359 230.266C291.194 230.879 290.289 231.784 289.645 232.98C289.032 234.176 288.725 235.663 288.725 237.442V250H284.309V225.62H288.541V232.198L287.851 230.45C288.648 228.855 289.875 227.613 291.531 226.724C293.187 225.835 295.119 225.39 297.327 225.39ZM323.992 250.276C321.538 250.276 319.637 249.617 318.288 248.298C316.938 246.979 316.264 245.093 316.264 242.64V220.284H320.68V242.456C320.68 243.775 321.002 244.787 321.646 245.492C322.32 246.197 323.271 246.55 324.498 246.55C325.878 246.55 327.028 246.167 327.948 245.4L329.328 248.574C328.653 249.157 327.84 249.586 326.89 249.862C325.97 250.138 325.004 250.276 323.992 250.276ZM312.124 229.254V225.62H327.672V229.254H312.124ZM359.946 250.276C357.922 250.276 356.067 249.816 354.38 248.896C352.724 247.945 351.39 246.55 350.378 244.71C349.397 242.87 348.906 240.57 348.906 237.81C348.906 235.05 349.381 232.75 350.332 230.91C351.313 229.07 352.632 227.69 354.288 226.77C355.975 225.85 357.861 225.39 359.946 225.39C362.338 225.39 364.454 225.911 366.294 226.954C368.134 227.997 369.591 229.453 370.664 231.324C371.737 233.164 372.274 235.326 372.274 237.81C372.274 240.294 371.737 242.471 370.664 244.342C369.591 246.213 368.134 247.669 366.294 248.712C364.454 249.755 362.338 250.276 359.946 250.276ZM347.02 258.924V225.62H351.252V232.198L350.976 237.856L351.436 243.514V258.924H347.02ZM359.578 246.412C361.142 246.412 362.537 246.059 363.764 245.354C365.021 244.649 366.003 243.652 366.708 242.364C367.444 241.045 367.812 239.527 367.812 237.81C367.812 236.062 367.444 234.559 366.708 233.302C366.003 232.014 365.021 231.017 363.764 230.312C362.537 229.607 361.142 229.254 359.578 229.254C358.045 229.254 356.649 229.607 355.392 230.312C354.165 231.017 353.184 232.014 352.448 233.302C351.743 234.559 351.39 236.062 351.39 237.81C351.39 239.527 351.743 241.045 352.448 242.364C353.184 243.652 354.165 244.649 355.392 245.354C356.649 246.059 358.045 246.412 359.578 246.412ZM393.285 250V244.848L393.055 243.882V235.096C393.055 233.225 392.503 231.784 391.399 230.772C390.326 229.729 388.7 229.208 386.523 229.208C385.082 229.208 383.671 229.453 382.291 229.944C380.911 230.404 379.746 231.033 378.795 231.83L376.955 228.518C378.212 227.506 379.715 226.739 381.463 226.218C383.242 225.666 385.097 225.39 387.029 225.39C390.372 225.39 392.948 226.203 394.757 227.828C396.566 229.453 397.471 231.937 397.471 235.28V250H393.285ZM385.281 250.276C383.472 250.276 381.877 249.969 380.497 249.356C379.148 248.743 378.105 247.899 377.369 246.826C376.633 245.722 376.265 244.48 376.265 243.1C376.265 241.781 376.572 240.585 377.185 239.512C377.829 238.439 378.856 237.58 380.267 236.936C381.708 236.292 383.64 235.97 386.063 235.97H393.791V239.144H386.247C384.039 239.144 382.552 239.512 381.785 240.248C381.018 240.984 380.635 241.873 380.635 242.916C380.635 244.112 381.11 245.078 382.061 245.814C383.012 246.519 384.33 246.872 386.017 246.872C387.673 246.872 389.114 246.504 390.341 245.768C391.598 245.032 392.503 243.959 393.055 242.548L393.929 245.584C393.346 247.025 392.319 248.175 390.847 249.034C389.375 249.862 387.52 250.276 385.281 250.276ZM405.643 250V225.62H409.875V232.244L409.461 230.588C410.136 228.901 411.27 227.613 412.865 226.724C414.46 225.835 416.422 225.39 418.753 225.39V229.668C418.569 229.637 418.385 229.622 418.201 229.622C418.048 229.622 417.894 229.622 417.741 229.622C415.38 229.622 413.509 230.327 412.129 231.738C410.749 233.149 410.059 235.188 410.059 237.856V250H405.643ZM437.533 250V244.848L437.303 243.882V235.096C437.303 233.225 436.751 231.784 435.647 230.772C434.574 229.729 432.948 229.208 430.771 229.208C429.33 229.208 427.919 229.453 426.539 229.944C425.159 230.404 423.994 231.033 423.043 231.83L421.203 228.518C422.46 227.506 423.963 226.739 425.711 226.218C427.49 225.666 429.345 225.39 431.277 225.39C434.62 225.39 437.196 226.203 439.005 227.828C440.814 229.453 441.719 231.937 441.719 235.28V250H437.533ZM429.529 250.276C427.72 250.276 426.125 249.969 424.745 249.356C423.396 248.743 422.353 247.899 421.617 246.826C420.881 245.722 420.513 244.48 420.513 243.1C420.513 241.781 420.82 240.585 421.433 239.512C422.077 238.439 423.104 237.58 424.515 236.936C425.956 236.292 427.888 235.97 430.311 235.97H438.039V239.144H430.495C428.287 239.144 426.8 239.512 426.033 240.248C425.266 240.984 424.883 241.873 424.883 242.916C424.883 244.112 425.358 245.078 426.309 245.814C427.26 246.519 428.578 246.872 430.265 246.872C431.921 246.872 433.362 246.504 434.589 245.768C435.846 245.032 436.751 243.959 437.303 242.548L438.177 245.584C437.594 247.025 436.567 248.175 435.095 249.034C433.623 249.862 431.768 250.276 429.529 250.276ZM460.563 259.2C458.324 259.2 456.147 258.878 454.031 258.234C451.946 257.621 450.244 256.731 448.925 255.566L451.041 252.162C452.176 253.143 453.571 253.91 455.227 254.462C456.883 255.045 458.616 255.336 460.425 255.336C463.308 255.336 465.424 254.661 466.773 253.312C468.122 251.963 468.797 249.908 468.797 247.148V241.996L469.257 237.166L469.027 232.29V225.62H473.213V246.688C473.213 250.981 472.14 254.14 469.993 256.164C467.846 258.188 464.703 259.2 460.563 259.2ZM460.011 248.988C457.65 248.988 455.534 248.497 453.663 247.516C451.823 246.504 450.351 245.109 449.247 243.33C448.174 241.551 447.637 239.497 447.637 237.166C447.637 234.805 448.174 232.75 449.247 231.002C450.351 229.223 451.823 227.843 453.663 226.862C455.534 225.881 457.65 225.39 460.011 225.39C462.096 225.39 463.998 225.819 465.715 226.678C467.432 227.506 468.797 228.794 469.809 230.542C470.852 232.29 471.373 234.498 471.373 237.166C471.373 239.803 470.852 241.996 469.809 243.744C468.797 245.492 467.432 246.811 465.715 247.7C463.998 248.559 462.096 248.988 460.011 248.988ZM460.517 245.124C462.142 245.124 463.584 244.787 464.841 244.112C466.098 243.437 467.08 242.502 467.785 241.306C468.521 240.11 468.889 238.73 468.889 237.166C468.889 235.602 468.521 234.222 467.785 233.026C467.08 231.83 466.098 230.91 464.841 230.266C463.584 229.591 462.142 229.254 460.517 229.254C458.892 229.254 457.435 229.591 456.147 230.266C454.89 230.91 453.893 231.83 453.157 233.026C452.452 234.222 452.099 235.602 452.099 237.166C452.099 238.73 452.452 240.11 453.157 241.306C453.893 242.502 454.89 243.437 456.147 244.112C457.435 244.787 458.892 245.124 460.517 245.124ZM481.651 250V225.62H485.883V232.244L485.469 230.588C486.144 228.901 487.278 227.613 488.873 226.724C490.468 225.835 492.43 225.39 494.761 225.39V229.668C494.577 229.637 494.393 229.622 494.209 229.622C494.056 229.622 493.902 229.622 493.749 229.622C491.388 229.622 489.517 230.327 488.137 231.738C486.757 233.149 486.067 235.188 486.067 237.856V250H481.651ZM513.541 250V244.848L513.311 243.882V235.096C513.311 233.225 512.759 231.784 511.655 230.772C510.581 229.729 508.956 229.208 506.779 229.208C505.337 229.208 503.927 229.453 502.547 229.944C501.167 230.404 500.001 231.033 499.051 231.83L497.211 228.518C498.468 227.506 499.971 226.739 501.719 226.218C503.497 225.666 505.353 225.39 507.285 225.39C510.627 225.39 513.203 226.203 515.013 227.828C516.822 229.453 517.727 231.937 517.727 235.28V250H513.541ZM505.537 250.276C503.727 250.276 502.133 249.969 500.753 249.356C499.403 248.743 498.361 247.899 497.625 246.826C496.889 245.722 496.521 244.48 496.521 243.1C496.521 241.781 496.827 240.585 497.441 239.512C498.085 238.439 499.112 237.58 500.523 236.936C501.964 236.292 503.896 235.97 506.319 235.97H514.047V239.144H506.503C504.295 239.144 502.807 239.512 502.041 240.248C501.274 240.984 500.891 241.873 500.891 242.916C500.891 244.112 501.366 245.078 502.317 245.814C503.267 246.519 504.586 246.872 506.273 246.872C507.929 246.872 509.37 246.504 510.597 245.768C511.854 245.032 512.759 243.959 513.311 242.548L514.185 245.584C513.602 247.025 512.575 248.175 511.103 249.034C509.631 249.862 507.775 250.276 505.537 250.276ZM538.825 250.276C536.801 250.276 534.946 249.816 533.259 248.896C531.603 247.945 530.269 246.55 529.257 244.71C528.276 242.87 527.785 240.57 527.785 237.81C527.785 235.05 528.26 232.75 529.211 230.91C530.192 229.07 531.511 227.69 533.167 226.77C534.854 225.85 536.74 225.39 538.825 225.39C541.217 225.39 543.333 225.911 545.173 226.954C547.013 227.997 548.47 229.453 549.543 231.324C550.616 233.164 551.153 235.326 551.153 237.81C551.153 240.294 550.616 242.471 549.543 244.342C548.47 246.213 547.013 247.669 545.173 248.712C543.333 249.755 541.217 250.276 538.825 250.276ZM525.899 258.924V225.62H530.131V232.198L529.855 237.856L530.315 243.514V258.924H525.899ZM538.457 246.412C540.021 246.412 541.416 246.059 542.643 245.354C543.9 244.649 544.882 243.652 545.587 242.364C546.323 241.045 546.691 239.527 546.691 237.81C546.691 236.062 546.323 234.559 545.587 233.302C544.882 232.014 543.9 231.017 542.643 230.312C541.416 229.607 540.021 229.254 538.457 229.254C536.924 229.254 535.528 229.607 534.271 230.312C533.044 231.017 532.063 232.014 531.327 233.302C530.622 234.559 530.269 236.062 530.269 237.81C530.269 239.527 530.622 241.045 531.327 242.364C532.063 243.652 533.044 244.649 534.271 245.354C535.528 246.059 536.924 246.412 538.457 246.412ZM570.272 225.39C572.266 225.39 574.014 225.773 575.516 226.54C577.05 227.307 578.246 228.472 579.104 230.036C579.963 231.6 580.392 233.578 580.392 235.97V250H575.976V236.476C575.976 234.115 575.394 232.336 574.228 231.14C573.094 229.944 571.484 229.346 569.398 229.346C567.834 229.346 566.47 229.653 565.304 230.266C564.139 230.879 563.234 231.784 562.59 232.98C561.977 234.176 561.67 235.663 561.67 237.442V250H557.254V215.868H561.67V232.198L560.796 230.45C561.594 228.855 562.82 227.613 564.476 226.724C566.132 225.835 568.064 225.39 570.272 225.39ZM611.36 250.276C608.907 250.276 606.73 249.739 604.828 248.666C602.927 247.593 601.424 246.121 600.32 244.25C599.216 242.349 598.664 240.202 598.664 237.81C598.664 235.387 599.216 233.241 600.32 231.37C601.424 229.499 602.927 228.043 604.828 227C606.73 225.927 608.907 225.39 611.36 225.39C613.783 225.39 615.945 225.927 617.846 227C619.778 228.043 621.281 229.499 622.354 231.37C623.458 233.21 624.01 235.357 624.01 237.81C624.01 240.233 623.458 242.379 622.354 244.25C621.281 246.121 619.778 247.593 617.846 248.666C615.945 249.739 613.783 250.276 611.36 250.276ZM611.36 246.412C612.924 246.412 614.32 246.059 615.546 245.354C616.804 244.649 617.785 243.652 618.49 242.364C619.196 241.045 619.548 239.527 619.548 237.81C619.548 236.062 619.196 234.559 618.49 233.302C617.785 232.014 616.804 231.017 615.546 230.312C614.32 229.607 612.924 229.254 611.36 229.254C609.796 229.254 608.401 229.607 607.174 230.312C605.948 231.017 604.966 232.014 604.23 233.302C603.494 234.559 603.126 236.062 603.126 237.81C603.126 239.527 603.494 241.045 604.23 242.364C604.966 243.652 605.948 244.649 607.174 245.354C608.401 246.059 609.796 246.412 611.36 246.412ZM630.118 250V225.62H634.35V232.244L633.936 230.588C634.61 228.901 635.745 227.613 637.34 226.724C638.934 225.835 640.897 225.39 643.228 225.39V229.668C643.044 229.637 642.86 229.622 642.676 229.622C642.522 229.622 642.369 229.622 642.216 229.622C639.854 229.622 637.984 230.327 636.604 231.738C635.224 233.149 634.534 235.188 634.534 237.856V250H630.118ZM674.264 250.276C672.179 250.276 670.293 249.816 668.606 248.896C666.95 247.945 665.632 246.55 664.65 244.71C663.7 242.87 663.224 240.57 663.224 237.81C663.224 235.05 663.715 232.75 664.696 230.91C665.708 229.07 667.042 227.69 668.698 226.77C670.385 225.85 672.24 225.39 674.264 225.39C676.656 225.39 678.772 225.911 680.612 226.954C682.452 227.997 683.909 229.453 684.982 231.324C686.056 233.164 686.592 235.326 686.592 237.81C686.592 240.294 686.056 242.471 684.982 244.342C683.909 246.213 682.452 247.669 680.612 248.712C678.772 249.755 676.656 250.276 674.264 250.276ZM661.338 250V215.868H665.754V232.106L665.294 237.764L665.57 243.422V250H661.338ZM673.896 246.412C675.46 246.412 676.856 246.059 678.082 245.354C679.34 244.649 680.321 243.652 681.026 242.364C681.762 241.045 682.13 239.527 682.13 237.81C682.13 236.062 681.762 234.559 681.026 233.302C680.321 232.014 679.34 231.017 678.082 230.312C676.856 229.607 675.46 229.254 673.896 229.254C672.363 229.254 670.968 229.607 669.71 230.312C668.484 231.017 667.502 232.014 666.766 233.302C666.061 234.559 665.708 236.062 665.708 237.81C665.708 239.527 666.061 241.045 666.766 242.364C667.502 243.652 668.484 244.649 669.71 245.354C670.968 246.059 672.363 246.412 673.896 246.412ZM702.952 250.276C700.866 250.276 699.026 249.893 697.432 249.126C695.868 248.359 694.641 247.194 693.752 245.63C692.893 244.035 692.464 242.042 692.464 239.65V225.62H696.88V239.144C696.88 241.536 697.447 243.33 698.582 244.526C699.747 245.722 701.372 246.32 703.458 246.32C704.991 246.32 706.325 246.013 707.46 245.4C708.594 244.756 709.468 243.836 710.082 242.64C710.695 241.413 711.002 239.941 711.002 238.224V225.62H715.418V250H711.232V243.422L711.922 245.17C711.124 246.795 709.928 248.053 708.334 248.942C706.739 249.831 704.945 250.276 702.952 250.276ZM723.825 250V215.868H728.241V250H723.825ZM736.672 250V215.868H741.088V250H736.672ZM760.376 250.276C757.769 250.276 755.469 249.739 753.476 248.666C751.513 247.593 749.98 246.121 748.876 244.25C747.803 242.379 747.266 240.233 747.266 237.81C747.266 235.387 747.787 233.241 748.83 231.37C749.903 229.499 751.36 228.043 753.2 227C755.071 225.927 757.171 225.39 759.502 225.39C761.863 225.39 763.949 225.911 765.758 226.954C767.567 227.997 768.978 229.469 769.99 231.37C771.033 233.241 771.554 235.433 771.554 237.948C771.554 238.132 771.539 238.347 771.508 238.592C771.508 238.837 771.493 239.067 771.462 239.282H750.716V236.108H769.162L767.368 237.212C767.399 235.648 767.077 234.253 766.402 233.026C765.727 231.799 764.792 230.849 763.596 230.174C762.431 229.469 761.066 229.116 759.502 229.116C757.969 229.116 756.604 229.469 755.408 230.174C754.212 230.849 753.277 231.815 752.602 233.072C751.927 234.299 751.59 235.709 751.59 237.304V238.04C751.59 239.665 751.958 241.122 752.694 242.41C753.461 243.667 754.519 244.649 755.868 245.354C757.217 246.059 758.766 246.412 760.514 246.412C761.955 246.412 763.259 246.167 764.424 245.676C765.62 245.185 766.663 244.449 767.552 243.468L769.99 246.32C768.886 247.608 767.506 248.589 765.85 249.264C764.225 249.939 762.4 250.276 760.376 250.276ZM786.058 250.276C783.605 250.276 781.703 249.617 780.354 248.298C779.005 246.979 778.33 245.093 778.33 242.64V220.284H782.746V242.456C782.746 243.775 783.068 244.787 783.712 245.492C784.387 246.197 785.337 246.55 786.564 246.55C787.944 246.55 789.094 246.167 790.014 245.4L791.394 248.574C790.719 249.157 789.907 249.586 788.956 249.862C788.036 250.138 787.07 250.276 786.058 250.276ZM774.19 229.254V225.62H789.738V229.254H774.19ZM803.725 250.276C801.701 250.276 799.769 250 797.929 249.448C796.12 248.896 794.694 248.221 793.651 247.424L795.491 243.928C796.534 244.633 797.822 245.231 799.355 245.722C800.888 246.213 802.452 246.458 804.047 246.458C806.102 246.458 807.574 246.167 808.463 245.584C809.383 245.001 809.843 244.189 809.843 243.146C809.843 242.379 809.567 241.781 809.015 241.352C808.463 240.923 807.727 240.601 806.807 240.386C805.918 240.171 804.921 239.987 803.817 239.834C802.713 239.65 801.609 239.435 800.505 239.19C799.401 238.914 798.389 238.546 797.469 238.086C796.549 237.595 795.813 236.936 795.261 236.108C794.709 235.249 794.433 234.115 794.433 232.704C794.433 231.232 794.847 229.944 795.675 228.84C796.503 227.736 797.668 226.893 799.171 226.31C800.704 225.697 802.514 225.39 804.599 225.39C806.194 225.39 807.804 225.589 809.429 225.988C811.085 226.356 812.434 226.893 813.477 227.598L811.591 231.094C810.487 230.358 809.337 229.852 808.141 229.576C806.945 229.3 805.749 229.162 804.553 229.162C802.621 229.162 801.18 229.484 800.229 230.128C799.278 230.741 798.803 231.539 798.803 232.52C798.803 233.348 799.079 233.992 799.631 234.452C800.214 234.881 800.95 235.219 801.839 235.464C802.759 235.709 803.771 235.924 804.875 236.108C805.979 236.261 807.083 236.476 808.187 236.752C809.291 236.997 810.288 237.35 811.177 237.81C812.097 238.27 812.833 238.914 813.385 239.742C813.968 240.57 814.259 241.674 814.259 243.054C814.259 244.526 813.83 245.799 812.971 246.872C812.112 247.945 810.901 248.789 809.337 249.402C807.773 249.985 805.902 250.276 803.725 250.276Z" fill="#262626" fill-opacity="0.85"/>
<g filter="url(#filter2_d_350_2)">
<path d="M1920 1080L1346 0H1920V1080Z" fill="#F7F7F7" fill-opacity="0.01" shape-rendering="crispEdges"/>
</g>
<g filter="url(#filter3_d_350_2)">
<path d="M1247 248L800 1080H1696L1629.98 964H1014.5L1113.5 787H1540L1247 248Z" fill="#F7F7F7" fill-opacity="0.01" shape-rendering="crispEdges"/>
</g>
<g filter="url(#filter4_d_350_2)">
<path d="M1632.93 94.0176C1632.85 94.0176 1632.79 94.058 1632.75 94.1229L1603.16 149.148C1603.09 149.282 1603.18 149.443 1603.33 149.443H1614.63C1614.7 149.443 1614.77 149.403 1614.8 149.338L1637.62 107.076C1637.7 106.937 1637.9 106.936 1637.98 107.075L1652.76 134.097C1652.83 134.23 1652.74 134.393 1652.59 134.393H1631.02C1630.94 134.393 1630.88 134.432 1630.84 134.495L1625.93 143.212C1625.85 143.345 1625.95 143.51 1626.1 143.51H1657.51C1657.58 143.51 1657.64 143.548 1657.68 143.611L1660.94 149.342C1660.98 149.404 1661.04 149.443 1661.12 149.443H1682.24C1682.35 149.443 1682.44 149.353 1682.44 149.243V135.345C1682.44 135.291 1682.46 135.24 1682.5 135.202L1701.32 116.646C1701.45 116.52 1701.36 116.304 1701.18 116.304H1682.64C1682.53 116.304 1682.44 116.214 1682.44 116.104V105.216C1682.44 105.105 1682.53 105.016 1682.64 105.016H1705.64C1714.23 105.355 1718.43 115.557 1712.52 121.752L1711.51 122.816L1696.28 138.249C1696.16 138.375 1696.25 138.589 1696.42 138.589H1708.2C1708.25 138.589 1708.3 138.611 1708.34 138.648L1719.09 149.384C1719.12 149.422 1719.17 149.443 1719.23 149.443H1733.28C1733.35 149.443 1733.41 149.411 1733.45 149.358L1747.33 129.543C1747.41 129.435 1747.57 129.429 1747.65 129.531L1764.02 149.37C1764.05 149.416 1764.11 149.443 1764.17 149.443H1778.48C1778.65 149.443 1778.74 149.245 1778.63 149.115L1755.08 120.775C1755.02 120.7 1755.02 120.591 1755.08 120.517L1777.59 94.348C1777.71 94.2183 1777.61 94.0176 1777.44 94.0176H1763.58C1763.52 94.0176 1763.47 94.0438 1763.43 94.0891L1743.58 117.764C1743.46 117.907 1743.23 117.822 1743.23 117.635V94.2176C1743.23 94.1071 1743.14 94.0176 1743.03 94.0176H1731.97C1731.86 94.0176 1731.77 94.1071 1731.77 94.2176V147.659C1731.77 147.837 1731.56 147.927 1731.43 147.801L1717.25 133.681C1717.16 133.597 1717.17 133.459 1717.26 133.384L1719.05 131.915C1733.55 120.001 1726.94 96.704 1708.29 94.0196C1708.28 94.0183 1708.27 94.0176 1708.26 94.0176H1671.04C1670.93 94.0176 1670.84 94.1071 1670.84 94.2176V145.318C1670.84 145.526 1670.56 145.595 1670.46 145.412L1643 94.1232C1642.96 94.0582 1642.89 94.0176 1642.82 94.0176H1632.93Z" fill="white"/>
</g>
<g filter="url(#filter5_d_350_2)">
<path d="M1639.95 160.967L1637.89 162.914C1633.85 159.43 1629.88 162.481 1629.88 165.92C1629.88 169.36 1633.21 171.761 1636.8 169.403V165.618H1639.67V172.864H1637.27V172.064C1632.02 174.768 1626.63 171.826 1626.63 165.618C1626.63 159.409 1634.74 155.883 1639.95 160.967Z" fill="white"/>
</g>
<g filter="url(#filter6_d_350_2)">
<path fill-rule="evenodd" clip-rule="evenodd" d="M1656.27 158.803V172.799H1659.43V168.927H1662.39L1665.02 172.799H1668.49L1665.4 168.343C1670.67 165.314 1667.98 158.803 1662.73 158.803H1656.27ZM1659.48 161.464V166.353H1662.41C1665.72 166.353 1665.89 161.464 1662.41 161.464H1659.48Z" fill="white"/>
</g>
<g filter="url(#filter7_d_350_2)">
<path fill-rule="evenodd" clip-rule="evenodd" d="M1690.99 173.189C1695.17 173.189 1698.55 169.915 1698.55 165.877C1698.55 161.839 1695.17 158.565 1690.99 158.565C1686.81 158.565 1683.42 161.839 1683.42 165.877C1683.42 169.915 1686.81 173.189 1690.99 173.189ZM1691.01 170.333C1693.42 170.333 1695.37 168.309 1695.37 165.812C1695.37 163.315 1693.42 161.291 1691.01 161.291C1688.6 161.291 1686.65 163.315 1686.65 165.812C1686.65 168.309 1688.6 170.333 1691.01 170.333Z" fill="white"/>
</g>
<g filter="url(#filter8_d_350_2)">
<path d="M1717.61 158.781H1714.4L1714.43 167.586C1714.43 172.821 1720.14 174.897 1723.75 171.241V172.907H1726.88V158.781H1723.67V166.807C1723.67 170.96 1717.61 171.804 1717.61 167.131V158.781Z" fill="white"/>
</g>
<g filter="url(#filter9_d_350_2)">
<path fill-rule="evenodd" clip-rule="evenodd" d="M1743.77 158.803V172.864H1746.96V168.97H1750.27C1757.75 168.862 1757.22 158.803 1750.27 158.803H1743.77ZM1746.96 161.464V166.352H1749.89C1753.21 166.352 1753.38 161.464 1749.89 161.464H1746.96Z" fill="white"/>
</g>
<g filter="url(#filter10_d_350_2)">
<path d="M1622.59 187.861L1625.84 180.497H1626.58L1629.83 187.861H1629.04L1626.06 180.949H1626.36L1623.37 187.861H1622.59ZM1623.87 185.894L1624.09 185.263H1628.23L1628.45 185.894H1623.87Z" fill="white"/>
<path d="M1631.01 187.861V180.497H1631.63L1636.54 186.893H1636.21V180.497H1636.95V187.861H1636.33L1631.44 181.465H1631.76V187.861H1631.01Z" fill="white"/>
<path d="M1642.39 187.924C1641.85 187.924 1641.35 187.833 1640.89 187.651C1640.44 187.462 1640.04 187.199 1639.7 186.862C1639.37 186.525 1639.11 186.129 1638.92 185.673C1638.74 185.217 1638.64 184.719 1638.64 184.179C1638.64 183.639 1638.74 183.141 1638.92 182.685C1639.11 182.229 1639.37 181.833 1639.71 181.496C1640.05 181.16 1640.45 180.9 1640.9 180.718C1641.36 180.528 1641.86 180.434 1642.4 180.434C1642.95 180.434 1643.44 180.521 1643.89 180.697C1644.34 180.872 1644.73 181.138 1645.04 181.496L1644.58 181.991C1644.28 181.682 1643.95 181.461 1643.59 181.328C1643.23 181.195 1642.85 181.128 1642.43 181.128C1641.99 181.128 1641.59 181.205 1641.21 181.359C1640.85 181.507 1640.53 181.721 1640.25 182.001C1639.98 182.275 1639.77 182.597 1639.61 182.969C1639.46 183.334 1639.39 183.737 1639.39 184.179C1639.39 184.614 1639.46 185.017 1639.61 185.389C1639.77 185.761 1639.98 186.087 1640.25 186.367C1640.53 186.641 1640.85 186.855 1641.21 187.009C1641.59 187.156 1641.99 187.23 1642.42 187.23C1642.83 187.23 1643.21 187.167 1643.57 187.041C1643.94 186.914 1644.27 186.701 1644.58 186.399L1645 186.988C1644.67 187.297 1644.27 187.532 1643.82 187.693C1643.36 187.847 1642.89 187.924 1642.39 187.924ZM1644.28 186.893V184.179H1645V186.988L1644.28 186.893Z" fill="white"/>
<path d="M1645.99 187.861L1649.24 180.497H1649.99L1653.24 187.861H1652.44L1649.46 180.949H1649.76L1646.78 187.861H1645.99ZM1647.27 185.894L1647.5 185.263H1651.63L1651.85 185.894H1647.27Z" fill="white"/>
<path d="M1654.41 187.861V180.497H1657.31C1658.07 180.497 1658.73 180.655 1659.3 180.97C1659.87 181.279 1660.32 181.71 1660.64 182.264C1660.96 182.818 1661.12 183.457 1661.12 184.179C1661.12 184.901 1660.96 185.54 1660.64 186.094C1660.32 186.648 1659.87 187.083 1659.3 187.398C1658.73 187.707 1658.07 187.861 1657.31 187.861H1654.41ZM1655.16 187.188H1657.27C1657.9 187.188 1658.44 187.062 1658.9 186.809C1659.37 186.55 1659.73 186.196 1659.99 185.747C1660.25 185.291 1660.38 184.768 1660.38 184.179C1660.38 183.583 1660.25 183.06 1659.99 182.611C1659.73 182.163 1659.37 181.812 1658.9 181.559C1658.44 181.3 1657.9 181.17 1657.27 181.17H1655.16V187.188Z" fill="white"/>
<path d="M1665.81 185.789C1665.67 185.789 1665.55 185.754 1665.42 185.684C1665.31 185.613 1665.22 185.519 1665.15 185.399C1665.08 185.28 1665.05 185.14 1665.05 184.979C1665.05 184.831 1665.08 184.698 1665.15 184.579C1665.22 184.46 1665.31 184.365 1665.42 184.295C1665.55 184.225 1665.67 184.19 1665.81 184.19C1665.94 184.19 1666.07 184.225 1666.19 184.295C1666.3 184.365 1666.39 184.46 1666.46 184.579C1666.53 184.698 1666.57 184.831 1666.57 184.979C1666.57 185.14 1666.53 185.28 1666.46 185.399C1666.39 185.519 1666.3 185.613 1666.19 185.684C1666.07 185.754 1665.94 185.789 1665.81 185.789Z" fill="white"/>
<path d="M1669.98 187.861L1673.23 180.497H1673.97L1677.22 187.861H1676.43L1673.44 180.949H1673.75L1670.76 187.861H1669.98ZM1671.26 185.894L1671.48 185.263H1675.62L1675.84 185.894H1671.26Z" fill="white"/>
<path d="M1678.4 187.861V180.497H1679.02L1683.93 186.893H1683.6V180.497H1684.34V187.861H1683.72L1678.83 181.465H1679.15V187.861H1678.4Z" fill="white"/>
<path d="M1689.78 187.924C1689.24 187.924 1688.74 187.833 1688.28 187.651C1687.83 187.462 1687.43 187.199 1687.09 186.862C1686.76 186.525 1686.5 186.129 1686.31 185.673C1686.13 185.217 1686.03 184.719 1686.03 184.179C1686.03 183.639 1686.13 183.141 1686.31 182.685C1686.5 182.229 1686.76 181.833 1687.1 181.496C1687.44 181.16 1687.84 180.9 1688.29 180.718C1688.75 180.528 1689.25 180.434 1689.79 180.434C1690.33 180.434 1690.83 180.521 1691.28 180.697C1691.73 180.872 1692.12 181.138 1692.43 181.496L1691.97 181.991C1691.67 181.682 1691.34 181.461 1690.98 181.328C1690.62 181.195 1690.24 181.128 1689.82 181.128C1689.38 181.128 1688.98 181.205 1688.6 181.359C1688.24 181.507 1687.92 181.721 1687.64 182.001C1687.37 182.275 1687.15 182.597 1687 182.969C1686.85 183.334 1686.78 183.737 1686.78 184.179C1686.78 184.614 1686.85 185.017 1687 185.389C1687.15 185.761 1687.37 186.087 1687.64 186.367C1687.92 186.641 1688.24 186.855 1688.6 187.009C1688.98 187.156 1689.38 187.23 1689.81 187.23C1690.22 187.23 1690.6 187.167 1690.96 187.041C1691.33 186.914 1691.66 186.701 1691.97 186.399L1692.39 186.988C1692.05 187.297 1691.66 187.532 1691.2 187.693C1690.75 187.847 1690.28 187.924 1689.78 187.924ZM1691.67 186.893V184.179H1692.39V186.988L1691.67 186.893Z" fill="white"/>
<path d="M1693.38 187.861L1696.63 180.497H1697.38L1700.63 187.861H1699.83L1696.85 180.949H1697.15L1694.17 187.861H1693.38ZM1694.66 185.894L1694.89 185.263H1699.02L1699.24 185.894H1694.66Z" fill="white"/>
<path d="M1702.83 187.861V181.17H1700.33V180.497H1706.08V181.17H1703.58V187.861H1702.83Z" fill="white"/>
<path d="M1710.28 185.789C1710.15 185.789 1710.02 185.754 1709.9 185.684C1709.78 185.613 1709.69 185.519 1709.62 185.399C1709.55 185.28 1709.52 185.14 1709.52 184.979C1709.52 184.831 1709.55 184.698 1709.62 184.579C1709.69 184.46 1709.78 184.365 1709.9 184.295C1710.02 184.225 1710.15 184.19 1710.28 184.19C1710.42 184.19 1710.54 184.225 1710.66 184.295C1710.77 184.365 1710.86 184.46 1710.93 184.579C1711.01 184.698 1711.04 184.831 1711.04 184.979C1711.04 185.14 1711.01 185.28 1710.93 185.399C1710.86 185.519 1710.77 185.613 1710.66 185.684C1710.54 185.754 1710.42 185.789 1710.28 185.789Z" fill="white"/>
<path d="M1716.24 186.031L1716.21 185.084L1720.52 180.497H1721.38L1718.24 183.905L1717.82 184.379L1716.24 186.031ZM1715.59 187.861V180.497H1716.34V187.861H1715.59ZM1720.7 187.861L1717.63 184.2L1718.14 183.632L1721.6 187.861H1720.7Z" fill="white"/>
<path d="M1721.4 187.861L1724.65 180.497H1725.39L1728.64 187.861H1727.85L1724.86 180.949H1725.17L1722.18 187.861H1721.4ZM1722.68 185.894L1722.9 185.263H1727.04L1727.26 185.894H1722.68Z" fill="white"/>
<path d="M1731.78 187.924C1731.25 187.924 1730.74 187.837 1730.25 187.661C1729.77 187.479 1729.4 187.248 1729.14 186.967L1729.43 186.367C1729.68 186.62 1730.02 186.834 1730.44 187.009C1730.86 187.177 1731.31 187.262 1731.78 187.262C1732.22 187.262 1732.59 187.206 1732.86 187.093C1733.15 186.974 1733.36 186.816 1733.48 186.62C1733.62 186.423 1733.69 186.206 1733.69 185.968C1733.69 185.68 1733.61 185.449 1733.44 185.273C1733.29 185.098 1733.08 184.961 1732.82 184.863C1732.57 184.758 1732.28 184.666 1731.97 184.589C1731.66 184.512 1731.35 184.432 1731.04 184.347C1730.72 184.256 1730.44 184.137 1730.17 183.99C1729.92 183.842 1729.71 183.649 1729.54 183.411C1729.39 183.166 1729.31 182.846 1729.31 182.454C1729.31 182.089 1729.4 181.756 1729.58 181.454C1729.77 181.146 1730.06 180.9 1730.45 180.718C1730.83 180.528 1731.33 180.434 1731.93 180.434C1732.33 180.434 1732.73 180.493 1733.12 180.612C1733.51 180.725 1733.85 180.882 1734.13 181.086L1733.88 181.707C1733.58 181.496 1733.25 181.342 1732.91 181.244C1732.57 181.146 1732.24 181.096 1731.92 181.096C1731.49 181.096 1731.14 181.156 1730.86 181.275C1730.59 181.395 1730.38 181.556 1730.24 181.759C1730.12 181.956 1730.05 182.18 1730.05 182.433C1730.05 182.72 1730.13 182.952 1730.28 183.127C1730.45 183.302 1730.66 183.439 1730.91 183.537C1731.18 183.635 1731.47 183.723 1731.78 183.8C1732.09 183.877 1732.4 183.962 1732.7 184.053C1733.01 184.144 1733.3 184.263 1733.56 184.41C1733.82 184.551 1734.03 184.74 1734.19 184.979C1734.35 185.217 1734.43 185.529 1734.43 185.915C1734.43 186.273 1734.33 186.606 1734.14 186.914C1733.96 187.216 1733.66 187.462 1733.27 187.651C1732.89 187.833 1732.39 187.924 1731.78 187.924Z" fill="white"/>
<path d="M1734.93 187.861L1738.18 180.497H1738.92L1742.17 187.861H1741.38L1738.39 180.949H1738.7L1735.71 187.861H1734.93ZM1736.21 185.894L1736.43 185.263H1740.57L1740.79 185.894H1736.21Z" fill="white"/>
<path d="M1743.35 187.861V180.497H1743.97L1747.22 186.241H1746.89L1750.11 180.497H1750.73V187.861H1750.01V181.665H1750.19L1747.22 186.925H1746.86L1743.88 181.665H1744.07V187.861H1743.35Z" fill="white"/>
<path d="M1751.91 187.861L1755.16 180.497H1755.91L1759.16 187.861H1758.36L1755.38 180.949H1755.68L1752.7 187.861H1751.91ZM1753.19 185.894L1753.42 185.263H1757.55L1757.77 185.894H1753.19Z" fill="white"/>
</g>
<path d="M212.124 1018V1005.13H207.084V1003.3H219.243V1005.13H214.203V1018H212.124ZM221.53 1018V1003.3H227.263C228.551 1003.3 229.65 1003.5 230.56 1003.91C231.47 1004.31 232.17 1004.9 232.66 1005.67C233.15 1006.44 233.395 1007.36 233.395 1008.42C233.395 1009.49 233.15 1010.4 232.66 1011.17C232.17 1011.93 231.47 1012.51 230.56 1012.92C229.65 1013.32 228.551 1013.53 227.263 1013.53H222.685L223.63 1012.56V1018H221.53ZM231.358 1018L227.62 1012.67H229.867L233.647 1018H231.358ZM223.63 1012.77L222.685 1011.74H227.2C228.544 1011.74 229.559 1011.45 230.245 1010.88C230.945 1010.29 231.295 1009.47 231.295 1008.42C231.295 1007.37 230.945 1006.56 230.245 1005.99C229.559 1005.41 228.544 1005.13 227.2 1005.13H222.685L223.63 1004.08V1012.77ZM234.562 1018L241.219 1003.3H243.298L249.976 1018H247.771L241.828 1004.48H242.668L236.725 1018H234.562ZM237.397 1014.32L237.964 1012.64H246.238L246.847 1014.32H237.397ZM252.169 1018V1003.3H253.891L263.614 1015.38H262.711V1003.3H264.811V1018H263.089L253.366 1005.92H254.269V1018H252.169ZM273.495 1018.17C272.375 1018.17 271.304 1018 270.282 1017.66C269.26 1017.31 268.455 1016.87 267.867 1016.32L268.644 1014.68C269.204 1015.17 269.918 1015.58 270.786 1015.9C271.654 1016.22 272.557 1016.38 273.495 1016.38C274.349 1016.38 275.042 1016.28 275.574 1016.09C276.106 1015.89 276.498 1015.63 276.75 1015.29C277.002 1014.94 277.128 1014.55 277.128 1014.11C277.128 1013.61 276.96 1013.2 276.624 1012.9C276.302 1012.59 275.875 1012.34 275.343 1012.16C274.825 1011.97 274.251 1011.8 273.621 1011.66C272.991 1011.52 272.354 1011.36 271.71 1011.17C271.08 1010.98 270.499 1010.73 269.967 1010.44C269.449 1010.15 269.029 1009.75 268.707 1009.26C268.385 1008.76 268.224 1008.12 268.224 1007.33C268.224 1006.58 268.42 1005.88 268.812 1005.25C269.218 1004.61 269.834 1004.1 270.66 1003.72C271.5 1003.33 272.564 1003.13 273.852 1003.13C274.706 1003.13 275.553 1003.24 276.393 1003.47C277.233 1003.69 277.961 1004.01 278.577 1004.43L277.884 1006.11C277.254 1005.69 276.589 1005.39 275.889 1005.21C275.189 1005.01 274.51 1004.92 273.852 1004.92C273.026 1004.92 272.347 1005.02 271.815 1005.23C271.283 1005.44 270.891 1005.72 270.639 1006.07C270.401 1006.42 270.282 1006.81 270.282 1007.25C270.282 1007.77 270.443 1008.18 270.765 1008.49C271.101 1008.79 271.528 1009.04 272.046 1009.22C272.578 1009.4 273.159 1009.57 273.789 1009.73C274.419 1009.87 275.049 1010.03 275.679 1010.21C276.323 1010.39 276.904 1010.63 277.422 1010.92C277.954 1011.22 278.381 1011.61 278.703 1012.1C279.025 1012.59 279.186 1013.22 279.186 1013.99C279.186 1014.73 278.983 1015.42 278.577 1016.07C278.171 1016.7 277.541 1017.21 276.687 1017.6C275.847 1017.98 274.783 1018.17 273.495 1018.17ZM284.144 1010.25H291.725V1012.06H284.144V1010.25ZM284.354 1018H282.254V1003.3H292.628V1005.13H284.354V1018ZM302.056 1018.17C300.936 1018.17 299.893 1017.98 298.927 1017.6C297.975 1017.22 297.149 1016.7 296.449 1016.03C295.749 1015.34 295.203 1014.54 294.811 1013.63C294.419 1012.72 294.223 1011.73 294.223 1010.65C294.223 1009.57 294.419 1008.58 294.811 1007.67C295.203 1006.76 295.749 1005.97 296.449 1005.29C297.149 1004.61 297.975 1004.08 298.927 1003.7C299.879 1003.32 300.922 1003.13 302.056 1003.13C303.176 1003.13 304.205 1003.32 305.143 1003.7C306.095 1004.06 306.921 1004.59 307.621 1005.27C308.335 1005.95 308.881 1006.74 309.259 1007.65C309.651 1008.56 309.847 1009.56 309.847 1010.65C309.847 1011.74 309.651 1012.74 309.259 1013.65C308.881 1014.56 308.335 1015.36 307.621 1016.05C306.921 1016.72 306.095 1017.24 305.143 1017.62C304.205 1017.99 303.176 1018.17 302.056 1018.17ZM302.056 1016.3C302.868 1016.3 303.617 1016.16 304.303 1015.88C305.003 1015.6 305.605 1015.21 306.109 1014.7C306.627 1014.18 307.026 1013.58 307.306 1012.9C307.6 1012.21 307.747 1011.46 307.747 1010.65C307.747 1009.84 307.6 1009.09 307.306 1008.4C307.026 1007.72 306.627 1007.12 306.109 1006.62C305.605 1006.1 305.003 1005.7 304.303 1005.42C303.617 1005.14 302.868 1005 302.056 1005C301.23 1005 300.467 1005.14 299.767 1005.42C299.081 1005.7 298.479 1006.1 297.961 1006.62C297.443 1007.12 297.037 1007.72 296.743 1008.4C296.463 1009.09 296.323 1009.84 296.323 1010.65C296.323 1011.46 296.463 1012.21 296.743 1012.9C297.037 1013.58 297.443 1014.18 297.961 1014.7C298.479 1015.21 299.081 1015.6 299.767 1015.88C300.467 1016.16 301.23 1016.3 302.056 1016.3ZM313.057 1018V1003.3H318.79C320.078 1003.3 321.177 1003.5 322.087 1003.91C322.997 1004.31 323.697 1004.9 324.187 1005.67C324.677 1006.44 324.922 1007.36 324.922 1008.42C324.922 1009.49 324.677 1010.4 324.187 1011.17C323.697 1011.93 322.997 1012.51 322.087 1012.92C321.177 1013.32 320.078 1013.53 318.79 1013.53H314.212L315.157 1012.56V1018H313.057ZM322.885 1018L319.147 1012.67H321.394L325.174 1018H322.885ZM315.157 1012.77L314.212 1011.74H318.727C320.071 1011.74 321.086 1011.45 321.772 1010.88C322.472 1010.29 322.822 1009.47 322.822 1008.42C322.822 1007.37 322.472 1006.56 321.772 1005.99C321.086 1005.41 320.071 1005.13 318.727 1005.13H314.212L315.157 1004.08V1012.77ZM328.314 1018V1003.3H330.036L336.63 1014.41H335.706L342.216 1003.3H343.938L343.959 1018H341.943L341.922 1006.47H342.405L336.609 1016.21H335.643L329.805 1006.47H330.33V1018H328.314ZM348.371 1018V1003.3H350.471V1018H348.371ZM354.872 1018V1003.3H356.594L366.317 1015.38H365.414V1003.3H367.514V1018H365.792L356.069 1005.92H356.972V1018H354.872ZM378.55 1018.17C377.416 1018.17 376.373 1017.99 375.421 1017.62C374.469 1017.24 373.643 1016.72 372.943 1016.05C372.243 1015.36 371.697 1014.56 371.305 1013.65C370.913 1012.74 370.717 1011.74 370.717 1010.65C370.717 1009.56 370.913 1008.56 371.305 1007.65C371.697 1006.74 372.243 1005.95 372.943 1005.27C373.657 1004.59 374.49 1004.06 375.442 1003.7C376.394 1003.32 377.444 1003.13 378.592 1003.13C379.754 1003.13 380.818 1003.32 381.784 1003.7C382.75 1004.08 383.569 1004.64 384.241 1005.4L382.939 1006.7C382.337 1006.11 381.679 1005.69 380.965 1005.42C380.265 1005.14 379.502 1005 378.676 1005C377.836 1005 377.052 1005.14 376.324 1005.42C375.61 1005.7 374.987 1006.09 374.455 1006.6C373.937 1007.1 373.531 1007.7 373.237 1008.4C372.957 1009.09 372.817 1009.84 372.817 1010.65C372.817 1011.45 372.957 1012.2 373.237 1012.9C373.531 1013.58 373.937 1014.18 374.455 1014.7C374.987 1015.21 375.61 1015.6 376.324 1015.88C377.038 1016.16 377.815 1016.3 378.655 1016.3C379.439 1016.3 380.188 1016.18 380.902 1015.94C381.63 1015.69 382.302 1015.28 382.918 1014.7L384.115 1016.3C383.387 1016.91 382.533 1017.38 381.553 1017.71C380.587 1018.01 379.586 1018.17 378.55 1018.17ZM382.099 1016.03V1010.57H384.115V1016.3L382.099 1016.03ZM398.059 1018.17C396.939 1018.17 395.868 1018 394.846 1017.66C393.824 1017.31 393.019 1016.87 392.431 1016.32L393.208 1014.68C393.768 1015.17 394.482 1015.58 395.35 1015.9C396.218 1016.22 397.121 1016.38 398.059 1016.38C398.913 1016.38 399.606 1016.28 400.138 1016.09C400.67 1015.89 401.062 1015.63 401.314 1015.29C401.566 1014.94 401.692 1014.55 401.692 1014.11C401.692 1013.61 401.524 1013.2 401.188 1012.9C400.866 1012.59 400.439 1012.34 399.907 1012.16C399.389 1011.97 398.815 1011.8 398.185 1011.66C397.555 1011.52 396.918 1011.36 396.274 1011.17C395.644 1010.98 395.063 1010.73 394.531 1010.44C394.013 1010.15 393.593 1009.75 393.271 1009.26C392.949 1008.76 392.788 1008.12 392.788 1007.33C392.788 1006.58 392.984 1005.88 393.376 1005.25C393.782 1004.61 394.398 1004.1 395.224 1003.72C396.064 1003.33 397.128 1003.13 398.416 1003.13C399.27 1003.13 400.117 1003.24 400.957 1003.47C401.797 1003.69 402.525 1004.01 403.141 1004.43L402.448 1006.11C401.818 1005.69 401.153 1005.39 400.453 1005.21C399.753 1005.01 399.074 1004.92 398.416 1004.92C397.59 1004.92 396.911 1005.02 396.379 1005.23C395.847 1005.44 395.455 1005.72 395.203 1006.07C394.965 1006.42 394.846 1006.81 394.846 1007.25C394.846 1007.77 395.007 1008.18 395.329 1008.49C395.665 1008.79 396.092 1009.04 396.61 1009.22C397.142 1009.4 397.723 1009.57 398.353 1009.73C398.983 1009.87 399.613 1010.03 400.243 1010.21C400.887 1010.39 401.468 1010.63 401.986 1010.92C402.518 1011.22 402.945 1011.61 403.267 1012.1C403.589 1012.59 403.75 1013.22 403.75 1013.99C403.75 1014.73 403.547 1015.42 403.141 1016.07C402.735 1016.7 402.105 1017.21 401.251 1017.6C400.411 1017.98 399.347 1018.17 398.059 1018.17ZM408.729 1009.64H416.289V1011.43H408.729V1009.64ZM408.918 1016.17H417.486V1018H406.818V1003.3H417.192V1005.13H408.918V1016.17ZM420.887 1018V1003.3H426.62C427.908 1003.3 429.007 1003.5 429.917 1003.91C430.827 1004.31 431.527 1004.9 432.017 1005.67C432.507 1006.44 432.752 1007.36 432.752 1008.42C432.752 1009.49 432.507 1010.4 432.017 1011.17C431.527 1011.93 430.827 1012.51 429.917 1012.92C429.007 1013.32 427.908 1013.53 426.62 1013.53H422.042L422.987 1012.56V1018H420.887ZM430.715 1018L426.977 1012.67H429.224L433.004 1018H430.715ZM422.987 1012.77L422.042 1011.74H426.557C427.901 1011.74 428.916 1011.45 429.602 1010.88C430.302 1010.29 430.652 1009.47 430.652 1008.42C430.652 1007.37 430.302 1006.56 429.602 1005.99C428.916 1005.41 427.901 1005.13 426.557 1005.13H422.042L422.987 1004.08V1012.77ZM440.386 1018L433.918 1003.3H436.186L442.129 1016.87H440.827L446.812 1003.3H448.912L442.465 1018H440.386ZM450.787 1018V1003.3H452.887V1018H450.787ZM463.861 1018.17C462.741 1018.17 461.705 1017.99 460.753 1017.62C459.815 1017.24 458.996 1016.72 458.296 1016.05C457.61 1015.36 457.071 1014.56 456.679 1013.65C456.287 1012.74 456.091 1011.74 456.091 1010.65C456.091 1009.56 456.287 1008.56 456.679 1007.65C457.071 1006.74 457.617 1005.95 458.317 1005.27C459.017 1004.59 459.836 1004.06 460.774 1003.7C461.726 1003.32 462.762 1003.13 463.882 1003.13C465.016 1003.13 466.059 1003.33 467.011 1003.72C467.977 1004.1 468.796 1004.66 469.468 1005.42L468.103 1006.74C467.543 1006.16 466.913 1005.72 466.213 1005.44C465.513 1005.15 464.764 1005 463.966 1005C463.14 1005 462.37 1005.14 461.656 1005.42C460.956 1005.7 460.347 1006.09 459.829 1006.6C459.311 1007.1 458.905 1007.7 458.611 1008.4C458.331 1009.09 458.191 1009.84 458.191 1010.65C458.191 1011.46 458.331 1012.22 458.611 1012.92C458.905 1013.6 459.311 1014.2 459.829 1014.7C460.347 1015.21 460.956 1015.6 461.656 1015.88C462.37 1016.16 463.14 1016.3 463.966 1016.3C464.764 1016.3 465.513 1016.16 466.213 1015.88C466.913 1015.58 467.543 1015.14 468.103 1014.53L469.468 1015.86C468.796 1016.61 467.977 1017.19 467.011 1017.58C466.059 1017.97 465.009 1018.17 463.861 1018.17ZM474.375 1009.64H481.935V1011.43H474.375V1009.64ZM474.564 1016.17H483.132V1018H472.464V1003.3H482.838V1005.13H474.564V1016.17ZM490.816 1018.17C489.696 1018.17 488.625 1018 487.603 1017.66C486.581 1017.31 485.776 1016.87 485.188 1016.32L485.965 1014.68C486.525 1015.17 487.239 1015.58 488.107 1015.9C488.975 1016.22 489.878 1016.38 490.816 1016.38C491.67 1016.38 492.363 1016.28 492.895 1016.09C493.427 1015.89 493.819 1015.63 494.071 1015.29C494.323 1014.94 494.449 1014.55 494.449 1014.11C494.449 1013.61 494.281 1013.2 493.945 1012.9C493.623 1012.59 493.196 1012.34 492.664 1012.16C492.146 1011.97 491.572 1011.8 490.942 1011.66C490.312 1011.52 489.675 1011.36 489.031 1011.17C488.401 1010.98 487.82 1010.73 487.288 1010.44C486.77 1010.15 486.35 1009.75 486.028 1009.26C485.706 1008.76 485.545 1008.12 485.545 1007.33C485.545 1006.58 485.741 1005.88 486.133 1005.25C486.539 1004.61 487.155 1004.1 487.981 1003.72C488.821 1003.33 489.885 1003.13 491.173 1003.13C492.027 1003.13 492.874 1003.24 493.714 1003.47C494.554 1003.69 495.282 1004.01 495.898 1004.43L495.205 1006.11C494.575 1005.69 493.91 1005.39 493.21 1005.21C492.51 1005.01 491.831 1004.92 491.173 1004.92C490.347 1004.92 489.668 1005.02 489.136 1005.23C488.604 1005.44 488.212 1005.72 487.96 1006.07C487.722 1006.42 487.603 1006.81 487.603 1007.25C487.603 1007.77 487.764 1008.18 488.086 1008.49C488.422 1008.79 488.849 1009.04 489.367 1009.22C489.899 1009.4 490.48 1009.57 491.11 1009.73C491.74 1009.87 492.37 1010.03 493 1010.21C493.644 1010.39 494.225 1010.63 494.743 1010.92C495.275 1011.22 495.702 1011.61 496.024 1012.1C496.346 1012.59 496.507 1013.22 496.507 1013.99C496.507 1014.73 496.304 1015.42 495.898 1016.07C495.492 1016.7 494.862 1017.21 494.008 1017.6C493.168 1017.98 492.104 1018.17 490.816 1018.17ZM508.134 1018V1005.13H503.094V1003.3H515.253V1005.13H510.213V1018H508.134ZM528.082 1003.3H530.182V1018H528.082V1003.3ZM519.64 1018H517.54V1003.3H519.64V1018ZM528.271 1011.45H519.43V1009.62H528.271V1011.45ZM534.582 1018V1003.3H540.315C541.603 1003.3 542.702 1003.5 543.612 1003.91C544.522 1004.31 545.222 1004.9 545.712 1005.67C546.202 1006.44 546.447 1007.36 546.447 1008.42C546.447 1009.49 546.202 1010.4 545.712 1011.17C545.222 1011.93 544.522 1012.51 543.612 1012.92C542.702 1013.32 541.603 1013.53 540.315 1013.53H535.737L536.682 1012.56V1018H534.582ZM544.41 1018L540.672 1012.67H542.919L546.699 1018H544.41ZM536.682 1012.77L535.737 1011.74H540.252C541.596 1011.74 542.611 1011.45 543.297 1010.88C543.997 1010.29 544.347 1009.47 544.347 1008.42C544.347 1007.37 543.997 1006.56 543.297 1005.99C542.611 1005.41 541.596 1005.13 540.252 1005.13H535.737L536.682 1004.08V1012.77ZM556.476 1018.17C555.356 1018.17 554.313 1017.98 553.347 1017.6C552.395 1017.22 551.569 1016.7 550.869 1016.03C550.169 1015.34 549.623 1014.54 549.231 1013.63C548.839 1012.72 548.643 1011.73 548.643 1010.65C548.643 1009.57 548.839 1008.58 549.231 1007.67C549.623 1006.76 550.169 1005.97 550.869 1005.29C551.569 1004.61 552.395 1004.08 553.347 1003.7C554.299 1003.32 555.342 1003.13 556.476 1003.13C557.596 1003.13 558.625 1003.32 559.563 1003.7C560.515 1004.06 561.341 1004.59 562.041 1005.27C562.755 1005.95 563.301 1006.74 563.679 1007.65C564.071 1008.56 564.267 1009.56 564.267 1010.65C564.267 1011.74 564.071 1012.74 563.679 1013.65C563.301 1014.56 562.755 1015.36 562.041 1016.05C561.341 1016.72 560.515 1017.24 559.563 1017.62C558.625 1017.99 557.596 1018.17 556.476 1018.17ZM556.476 1016.3C557.288 1016.3 558.037 1016.16 558.723 1015.88C559.423 1015.6 560.025 1015.21 560.529 1014.7C561.047 1014.18 561.446 1013.58 561.726 1012.9C562.02 1012.21 562.167 1011.46 562.167 1010.65C562.167 1009.84 562.02 1009.09 561.726 1008.4C561.446 1007.72 561.047 1007.12 560.529 1006.62C560.025 1006.1 559.423 1005.7 558.723 1005.42C558.037 1005.14 557.288 1005 556.476 1005C555.65 1005 554.887 1005.14 554.187 1005.42C553.501 1005.7 552.899 1006.1 552.381 1006.62C551.863 1007.12 551.457 1007.72 551.163 1008.4C550.883 1009.09 550.743 1009.84 550.743 1010.65C550.743 1011.46 550.883 1012.21 551.163 1012.9C551.457 1013.58 551.863 1014.18 552.381 1014.7C552.899 1015.21 553.501 1015.6 554.187 1015.88C554.887 1016.16 555.65 1016.3 556.476 1016.3ZM573.566 1018.17C571.634 1018.17 570.115 1017.61 569.009 1016.51C567.903 1015.4 567.35 1013.79 567.35 1011.66V1003.3H569.45V1011.57C569.45 1013.21 569.807 1014.41 570.521 1015.16C571.249 1015.92 572.271 1016.3 573.587 1016.3C574.917 1016.3 575.939 1015.92 576.653 1015.16C577.381 1014.41 577.745 1013.21 577.745 1011.57V1003.3H579.782V1011.66C579.782 1013.79 579.229 1015.4 578.123 1016.51C577.031 1017.61 575.512 1018.17 573.566 1018.17ZM590.724 1018.17C589.59 1018.17 588.547 1017.99 587.595 1017.62C586.643 1017.24 585.817 1016.72 585.117 1016.05C584.417 1015.36 583.871 1014.56 583.479 1013.65C583.087 1012.74 582.891 1011.74 582.891 1010.65C582.891 1009.56 583.087 1008.56 583.479 1007.65C583.871 1006.74 584.417 1005.95 585.117 1005.27C585.831 1004.59 586.664 1004.06 587.616 1003.7C588.568 1003.32 589.618 1003.13 590.766 1003.13C591.928 1003.13 592.992 1003.32 593.958 1003.7C594.924 1004.08 595.743 1004.64 596.415 1005.4L595.113 1006.7C594.511 1006.11 593.853 1005.69 593.139 1005.42C592.439 1005.14 591.676 1005 590.85 1005C590.01 1005 589.226 1005.14 588.498 1005.42C587.784 1005.7 587.161 1006.09 586.629 1006.6C586.111 1007.1 585.705 1007.7 585.411 1008.4C585.131 1009.09 584.991 1009.84 584.991 1010.65C584.991 1011.45 585.131 1012.2 585.411 1012.9C585.705 1013.58 586.111 1014.18 586.629 1014.7C587.161 1015.21 587.784 1015.6 588.498 1015.88C589.212 1016.16 589.989 1016.3 590.829 1016.3C591.613 1016.3 592.362 1016.18 593.076 1015.94C593.804 1015.69 594.476 1015.28 595.092 1014.7L596.289 1016.3C595.561 1016.91 594.707 1017.38 593.727 1017.71C592.761 1018.01 591.76 1018.17 590.724 1018.17ZM594.273 1016.03V1010.57H596.289V1016.3L594.273 1016.03ZM610.851 1003.3H612.951V1018H610.851V1003.3ZM602.409 1018H600.309V1003.3H602.409V1018ZM611.04 1011.45H602.199V1009.62H611.04V1011.45ZM622.991 1018V1003.3H629.186C630.754 1003.3 632.133 1003.61 633.323 1004.22C634.527 1004.84 635.458 1005.7 636.116 1006.81C636.788 1007.91 637.124 1009.19 637.124 1010.65C637.124 1012.11 636.788 1013.39 636.116 1014.49C635.458 1015.6 634.527 1016.46 633.323 1017.08C632.133 1017.69 630.754 1018 629.186 1018H622.991ZM625.091 1016.17H629.06C630.278 1016.17 631.328 1015.94 632.21 1015.48C633.106 1015.02 633.799 1014.37 634.289 1013.55C634.779 1012.71 635.024 1011.74 635.024 1010.65C635.024 1009.54 634.779 1008.58 634.289 1007.75C633.799 1006.93 633.106 1006.28 632.21 1005.82C631.328 1005.36 630.278 1005.13 629.06 1005.13H625.091V1016.17ZM640.341 1018V1003.3H642.441V1018H640.341ZM653.478 1018.17C652.344 1018.17 651.301 1017.99 650.349 1017.62C649.397 1017.24 648.571 1016.72 647.871 1016.05C647.171 1015.36 646.625 1014.56 646.233 1013.65C645.841 1012.74 645.645 1011.74 645.645 1010.65C645.645 1009.56 645.841 1008.56 646.233 1007.65C646.625 1006.74 647.171 1005.95 647.871 1005.27C648.585 1004.59 649.418 1004.06 650.37 1003.7C651.322 1003.32 652.372 1003.13 653.52 1003.13C654.682 1003.13 655.746 1003.32 656.712 1003.7C657.678 1004.08 658.497 1004.64 659.169 1005.4L657.867 1006.7C657.265 1006.11 656.607 1005.69 655.893 1005.42C655.193 1005.14 654.43 1005 653.604 1005C652.764 1005 651.98 1005.14 651.252 1005.42C650.538 1005.7 649.915 1006.09 649.383 1006.6C648.865 1007.1 648.459 1007.7 648.165 1008.4C647.885 1009.09 647.745 1009.84 647.745 1010.65C647.745 1011.45 647.885 1012.2 648.165 1012.9C648.459 1013.58 648.865 1014.18 649.383 1014.7C649.915 1015.21 650.538 1015.6 651.252 1015.88C651.966 1016.16 652.743 1016.3 653.583 1016.3C654.367 1016.3 655.116 1016.18 655.83 1015.94C656.558 1015.69 657.23 1015.28 657.846 1014.7L659.043 1016.3C658.315 1016.91 657.461 1017.38 656.481 1017.71C655.515 1018.01 654.514 1018.17 653.478 1018.17ZM657.027 1016.03V1010.57H659.043V1016.3L657.027 1016.03ZM663.063 1018V1003.3H665.163V1018H663.063ZM672.483 1018V1005.13H667.443V1003.3H679.602V1005.13H674.562V1018H672.483ZM678.925 1018L685.582 1003.3H687.661L694.339 1018H692.134L686.191 1004.48H687.031L681.088 1018H678.925ZM681.76 1014.32L682.327 1012.64H690.601L691.21 1014.32H681.76ZM696.532 1018V1003.3H698.632V1016.17H706.591V1018H696.532ZM709.001 1018V1003.3H711.101V1018H709.001ZM714.2 1018V1016.57L724.091 1004.31L724.322 1005.13H714.347V1003.3H726.212V1004.73L716.363 1016.99L716.111 1016.17H726.485V1018H714.2ZM727.078 1018L733.735 1003.3H735.814L742.492 1018H740.287L734.344 1004.48H735.184L729.241 1018H727.078ZM729.913 1014.32L730.48 1012.64H738.754L739.363 1014.32H729.913ZM746.865 1018V1005.13H741.825V1003.3H753.984V1005.13H748.944V1018H746.865ZM756.271 1018V1003.3H758.371V1018H756.271ZM769.408 1018.17C768.288 1018.17 767.245 1017.98 766.279 1017.6C765.327 1017.22 764.501 1016.7 763.801 1016.03C763.101 1015.34 762.555 1014.54 762.163 1013.63C761.771 1012.72 761.575 1011.73 761.575 1010.65C761.575 1009.57 761.771 1008.58 762.163 1007.67C762.555 1006.76 763.101 1005.97 763.801 1005.29C764.501 1004.61 765.327 1004.08 766.279 1003.7C767.231 1003.32 768.274 1003.13 769.408 1003.13C770.528 1003.13 771.557 1003.32 772.495 1003.7C773.447 1004.06 774.273 1004.59 774.973 1005.27C775.687 1005.95 776.233 1006.74 776.611 1007.65C777.003 1008.56 777.199 1009.56 777.199 1010.65C777.199 1011.74 777.003 1012.74 776.611 1013.65C776.233 1014.56 775.687 1015.36 774.973 1016.05C774.273 1016.72 773.447 1017.24 772.495 1017.62C771.557 1017.99 770.528 1018.17 769.408 1018.17ZM769.408 1016.3C770.22 1016.3 770.969 1016.16 771.655 1015.88C772.355 1015.6 772.957 1015.21 773.461 1014.7C773.979 1014.18 774.378 1013.58 774.658 1012.9C774.952 1012.21 775.099 1011.46 775.099 1010.65C775.099 1009.84 774.952 1009.09 774.658 1008.4C774.378 1007.72 773.979 1007.12 773.461 1006.62C772.957 1006.1 772.355 1005.7 771.655 1005.42C770.969 1005.14 770.22 1005 769.408 1005C768.582 1005 767.819 1005.14 767.119 1005.42C766.433 1005.7 765.831 1006.1 765.313 1006.62C764.795 1007.12 764.389 1007.72 764.095 1008.4C763.815 1009.09 763.675 1009.84 763.675 1010.65C763.675 1011.46 763.815 1012.21 764.095 1012.9C764.389 1013.58 764.795 1014.18 765.313 1014.7C765.831 1015.21 766.433 1015.6 767.119 1015.88C767.819 1016.16 768.582 1016.3 769.408 1016.3ZM780.409 1018V1003.3H782.131L791.854 1015.38H790.951V1003.3H793.051V1018H791.329L781.606 1005.92H782.509V1018H780.409Z" fill="#262626" fill-opacity="0.75"/>
</g>
<defs>
<filter id="filter0_b_350_2" x="-150" y="-150" width="2220" height="1380" filterUnits="userSpaceOnUse" color-interpolation-filters="sRGB">
<feFlood flood-opacity="0" result="BackgroundImageFix"/>
<feGaussianBlur in="BackgroundImageFix" stdDeviation="75"/>
<feComposite in2="SourceAlpha" operator="in" result="effect1_backgroundBlur_350_2"/>
<feBlend mode="normal" in="SourceGraphic" in2="effect1_backgroundBlur_350_2" result="shape"/>
</filter>
<filter id="filter1_b_350_2" x="-48" y="-48" width="1476" height="1176" filterUnits="userSpaceOnUse" color-interpolation-filters="sRGB">
<feFlood flood-opacity="0" result="BackgroundImageFix"/>
<feGaussianBlur in="BackgroundImageFix" stdDeviation="24"/>
<feComposite in2="SourceAlpha" operator="in" result="effect1_backgroundBlur_350_2"/>
<feBlend mode="normal" in="SourceGraphic" in2="effect1_backgroundBlur_350_2" result="shape"/>
</filter>
<filter id="filter2_d_350_2" x="1229.2" y="-11.8" width="767.6" height="1273.6" filterUnits="userSpaceOnUse" color-interpolation-filters="sRGB">
<feFlood flood-opacity="0" result="BackgroundImageFix"/>
<feColorMatrix in="SourceAlpha" type="matrix" values="0 0 0 0 0 0 0 0 0 0 0 0 0 0 0 0 0 0 127 0" result="hardAlpha"/>
<feOffset dx="-20" dy="85"/>
<feGaussianBlur stdDeviation="48.4"/>
<feComposite in2="hardAlpha" operator="out"/>
<feColorMatrix type="matrix" values="0 0 0 0 0 0 0 0 0 0 0 0 0 0 0 0 0 0 0.42 0"/>
<feBlend mode="normal" in2="BackgroundImageFix" result="effect1_dropShadow_350_2"/>
<feBlend mode="normal" in="SourceGraphic" in2="effect1_dropShadow_350_2" result="shape"/>
</filter>
<filter id="filter3_d_350_2" x="750.1" y="174.1" width="1051.8" height="987.8" filterUnits="userSpaceOnUse" color-interpolation-filters="sRGB">
<feFlood flood-opacity="0" result="BackgroundImageFix"/>
<feColorMatrix in="SourceAlpha" type="matrix" values="0 0 0 0 0 0 0 0 0 0 0 0 0 0 0 0 0 0 127 0" result="hardAlpha"/>
<feOffset dx="28" dy="4"/>
<feGaussianBlur stdDeviation="38.95"/>
<feComposite in2="hardAlpha" operator="out"/>
<feColorMatrix type="matrix" values="0 0 0 0 0 0 0 0 0 0 0 0 0 0 0 0 0 0 0.59 0"/>
<feBlend mode="normal" in2="BackgroundImageFix" result="effect1_dropShadow_350_2"/>
<feBlend mode="normal" in="SourceGraphic" in2="effect1_dropShadow_350_2" result="shape"/>
</filter>
<filter id="filter4_d_350_2" x="1587" y="78" width="208" height="87.7334" filterUnits="userSpaceOnUse" color-interpolation-filters="sRGB">
<feFlood flood-opacity="0" result="BackgroundImageFix"/>
<feColorMatrix in="SourceAlpha" type="matrix" values="0 0 0 0 0 0 0 0 0 0 0 0 0 0 0 0 0 0 127 0" result="hardAlpha"/>
<feOffset/>
<feGaussianBlur stdDeviation="8"/>
<feComposite in2="hardAlpha" operator="out"/>
<feColorMatrix type="matrix" values="0 0 0 0 0 0 0 0 0 0 0 0 0 0 0 0 0 0 0.25 0"/>
<feBlend mode="normal" in2="BackgroundImageFix" result="effect1_dropShadow_350_2"/>
<feBlend mode="normal" in="SourceGraphic" in2="effect1_dropShadow_350_2" result="shape"/>
</filter>
<filter id="filter5_d_350_2" x="1614.63" y="146.533" width="37.3233" height="38.5371" filterUnits="userSpaceOnUse" color-interpolation-filters="sRGB">
<feFlood flood-opacity="0" result="BackgroundImageFix"/>
<feColorMatrix in="SourceAlpha" type="matrix" values="0 0 0 0 0 0 0 0 0 0 0 0 0 0 0 0 0 0 127 0" result="hardAlpha"/>
<feOffset/>
<feGaussianBlur stdDeviation="6"/>
<feComposite in2="hardAlpha" operator="out"/>
<feColorMatrix type="matrix" values="0 0 0 0 0 0 0 0 0 0 0 0 0 0 0 0 0 0 0.35 0"/>
<feBlend mode="normal" in2="BackgroundImageFix" result="effect1_dropShadow_350_2"/>
<feBlend mode="normal" in="SourceGraphic" in2="effect1_dropShadow_350_2" result="shape"/>
</filter>
<filter id="filter6_d_350_2" x="1644.27" y="146.803" width="36.2182" height="37.9961" filterUnits="userSpaceOnUse" color-interpolation-filters="sRGB">
<feFlood flood-opacity="0" result="BackgroundImageFix"/>
<feColorMatrix in="SourceAlpha" type="matrix" values="0 0 0 0 0 0 0 0 0 0 0 0 0 0 0 0 0 0 127 0" result="hardAlpha"/>
<feOffset/>
<feGaussianBlur stdDeviation="6"/>
<feComposite in2="hardAlpha" operator="out"/>
<feColorMatrix type="matrix" values="0 0 0 0 0 0 0 0 0 0 0 0 0 0 0 0 0 0 0.35 0"/>
<feBlend mode="normal" in2="BackgroundImageFix" result="effect1_dropShadow_350_2"/>
<feBlend mode="normal" in="SourceGraphic" in2="effect1_dropShadow_350_2" result="shape"/>
</filter>
<filter id="filter7_d_350_2" x="1671.42" y="146.565" width="39.1293" height="38.623" filterUnits="userSpaceOnUse" color-interpolation-filters="sRGB">
<feFlood flood-opacity="0" result="BackgroundImageFix"/>
<feColorMatrix in="SourceAlpha" type="matrix" values="0 0 0 0 0 0 0 0 0 0 0 0 0 0 0 0 0 0 127 0" result="hardAlpha"/>
<feOffset/>
<feGaussianBlur stdDeviation="6"/>
<feComposite in2="hardAlpha" operator="out"/>
<feColorMatrix type="matrix" values="0 0 0 0 0 0 0 0 0 0 0 0 0 0 0 0 0 0 0.35 0"/>
<feBlend mode="normal" in2="BackgroundImageFix" result="effect1_dropShadow_350_2"/>
<feBlend mode="normal" in="SourceGraphic" in2="effect1_dropShadow_350_2" result="shape"/>
</filter>
<filter id="filter8_d_350_2" x="1702.4" y="146.781" width="36.4732" height="38.3027" filterUnits="userSpaceOnUse" color-interpolation-filters="sRGB">
<feFlood flood-opacity="0" result="BackgroundImageFix"/>
<feColorMatrix in="SourceAlpha" type="matrix" values="0 0 0 0 0 0 0 0 0 0 0 0 0 0 0 0 0 0 127 0" result="hardAlpha"/>
<feOffset/>
<feGaussianBlur stdDeviation="6"/>
<feComposite in2="hardAlpha" operator="out"/>
<feColorMatrix type="matrix" values="0 0 0 0 0 0 0 0 0 0 0 0 0 0 0 0 0 0 0.35 0"/>
<feBlend mode="normal" in2="BackgroundImageFix" result="effect1_dropShadow_350_2"/>
<feBlend mode="normal" in="SourceGraphic" in2="effect1_dropShadow_350_2" result="shape"/>
</filter>
<filter id="filter9_d_350_2" x="1731.77" y="146.803" width="35.9146" height="38.0605" filterUnits="userSpaceOnUse" color-interpolation-filters="sRGB">
<feFlood flood-opacity="0" result="BackgroundImageFix"/>
<feColorMatrix in="SourceAlpha" type="matrix" values="0 0 0 0 0 0 0 0 0 0 0 0 0 0 0 0 0 0 127 0" result="hardAlpha"/>
<feOffset/>
<feGaussianBlur stdDeviation="6"/>
<feComposite in2="hardAlpha" operator="out"/>
<feColorMatrix type="matrix" values="0 0 0 0 0 0 0 0 0 0 0 0 0 0 0 0 0 0 0.35 0"/>
<feBlend mode="normal" in2="BackgroundImageFix" result="effect1_dropShadow_350_2"/>
<feBlend mode="normal" in="SourceGraphic" in2="effect1_dropShadow_350_2" result="shape"/>
</filter>
<filter id="filter10_d_350_2" x="1610.59" y="168.434" width="160.564" height="31.4912" filterUnits="userSpaceOnUse" color-interpolation-filters="sRGB">
<feFlood flood-opacity="0" result="BackgroundImageFix"/>
<feColorMatrix in="SourceAlpha" type="matrix" values="0 0 0 0 0 0 0 0 0 0 0 0 0 0 0 0 0 0 127 0" result="hardAlpha"/>
<feOffset/>
<feGaussianBlur stdDeviation="6"/>
<feComposite in2="hardAlpha" operator="out"/>
<feColorMatrix type="matrix" values="0 0 0 0 0 0 0 0 0 0 0 0 0 0 0 0 0 0 0.64 0"/>
<feBlend mode="normal" in2="BackgroundImageFix" result="effect1_dropShadow_350_2"/>
<feBlend mode="normal" in="SourceGraphic" in2="effect1_dropShadow_350_2" result="shape"/>
</filter>
<clipPath id="clip0_350_2">
<rect width="1920" height="1080" fill="white"/>
</clipPath>
</defs>
</svg>
